<svg xmlns="http://www.w3.org/2000/svg" width="339" height="124" fill="none"><path fill="#9FB1C9" d="M61.642 122.278q-1.708 0-3.074-1.206-1.195-1.205-1.195-3.1v-19.46H4.269q-1.708 0-3.074-1.206Q0 96.1 0 94.206V77.844q0-1.55.512-2.755.683-1.379 1.366-2.583L51.568 4.65q2.22-2.928 6.317-2.928h24.76q1.878 0 3.073 1.206 1.365 1.205 1.366 3.1V72.85h15.026q2.05 0 3.244 1.378 1.196 1.205 1.196 2.928v17.05q0 1.894-1.366 3.1-1.196 1.205-2.903 1.205H87.084v19.461q0 1.895-1.366 3.1-1.196 1.206-3.074 1.206zM29.37 74.056h28.686V33.41zM169.496 124q-12.294 0-21.344-3.444-9.05-3.618-15.026-9.817-5.806-6.2-8.879-14.467-3.074-8.266-3.586-17.739-.171-4.65-.342-10.505V55.972q.171-6.2.342-11.022.512-9.472 3.586-17.567 3.243-8.266 9.22-14.294 6.147-6.2 15.026-9.645Q157.544 0 169.496 0q12.123 0 21.003 3.444 8.879 3.446 14.855 9.645 6.148 6.027 9.391 14.294 3.245 8.095 3.586 17.567.342 4.823.342 11.022.171 6.028 0 12.056 0 5.855-.342 10.505-.341 9.472-3.586 17.74-3.073 8.266-9.049 14.466-5.807 6.2-14.856 9.817Q181.961 124 169.496 124m0-24.972q8.879 0 12.806-5.684 4.099-5.855 4.269-15.672.342-4.995.342-10.505.171-5.512 0-11.023 0-5.51-.342-10.16-.17-9.473-4.269-15.328-3.927-5.856-12.806-6.028-8.879.172-12.806 6.028-3.929 5.855-4.269 15.327-.171 4.65-.342 10.161v11.023q.171 5.511.342 10.505.34 9.818 4.439 15.672 4.098 5.685 12.636 5.684M294.092 122.278q-1.707 0-3.073-1.206-1.196-1.205-1.196-3.1v-19.46h-53.104q-1.708 0-3.073-1.206-1.196-1.206-1.196-3.1V77.844q0-1.55.513-2.755.682-1.379 1.366-2.583L284.018 4.65q2.22-2.928 6.318-2.928h24.759q1.878 0 3.073 1.206 1.366 1.205 1.366 3.1V72.85h15.026q2.05 0 3.245 1.378Q339 75.433 339 77.156v17.05q0 1.894-1.366 3.1-1.195 1.205-2.903 1.205h-15.197v19.461q0 1.895-1.366 3.1-1.195 1.206-3.073 1.206zM261.82 74.056h28.686V33.41z"/></svg>