<svg xmlns="http://www.w3.org/2000/svg" width="24" height="24" fill="none"><path fill="#2B394D" fill-rule="evenodd" d="M12 23.25c6.213 0 11.25-5.037 11.25-11.25S18.213.75 12 .75.75 5.787.75 12 5.787 23.25 12 23.25m0 .75c6.627 0 12-5.373 12-12S18.627 0 12 0 0 5.373 0 12s5.373 12 12 12" clip-rule="evenodd"/><path fill="#2B394D" fill-rule="evenodd" d="M5.25 7.875c0-.621.504-1.125 1.125-1.125h11.25c.621 0 1.125.504 1.125 1.125v5.25c0 .621-.504 1.125-1.125 1.125h-.75v-1.5c0-.621-.504-1.125-1.125-1.125h-7.5c-.621 0-1.125.504-1.125 1.125v1.5h-.75a1.125 1.125 0 0 1-1.125-1.125zm2.625.75v1.5h-.75v-1.5zm1.5 0v1.5h-.75v-1.5z" clip-rule="evenodd"/><path fill="#2B394D" d="M16.125 12.75v1.5h-8.25v-1.5c0-.207.168-.375.375-.375h7.5c.207 0 .375.168.375.375"/><path fill="#2B394D" fill-rule="evenodd" d="M12.75 15v3H12v-3zM16.099 14.954l.776 2.898-.724.194-.777-2.898zM7.875 17.852l.776-2.898.724.194-.776 2.898z" clip-rule="evenodd"/></svg>