<svg xmlns="http://www.w3.org/2000/svg" width="12" height="20" fill="none"><path fill="#9FB1C9" d="M6.07.767c1.252 0 1.655.907 1.987 1.798.143.39 3.41 9.328 3.498 9.6.028.073.014.202-.1.245-.116.043-1.814.705-1.901.734-.1.028-.201-.015-.23-.115-.029-.086-.734-2.044-.821-2.26H3.667c-.086.216-.792 2.174-.821 2.26a.19.19 0 0 1-.23.115c-.1-.043-1.799-.705-1.9-.734-.1-.043-.144-.144-.1-.244.114-.332 3.338-9.14 3.497-9.6.288-.878.705-1.8 1.957-1.8M.327 16.773a.19.19 0 0 0-.187.187v2.087c0 .1.086.187.187.187h11.486a.19.19 0 0 0 .187-.187V16.96a.19.19 0 0 0-.187-.187zM6.056 3.689 4.415 8.597H7.71L6.07 3.689z"/></svg>