<svg xmlns="http://www.w3.org/2000/svg" width="100" height="100" fill="none"><path fill="#2B394D" d="M37.867 1.867C28.8 4.134 20.4 9.2 13.733 16.4 6.533 24.267 3.2 30.934 1.2 41.6c-3.067 16.8 2.667 33.067 15.733 45.067 9.6 8.8 19.334 12.4 33.067 12.4 15.067 0 24.133-3.733 34.8-14.267C95.333 74.134 99.067 65.067 99.067 50c0-13.466-3.6-23.333-12-32.666C79.733 9.2 71.6 4.134 61.467 1.867c-9.067-2.133-14.534-2.133-23.6 0m31.2 5.467c4.266 1.866 10.4 6.266 13.866 9.6 18.534 18.133 18.534 48 0 66.133C73.467 92.4 63.2 96.534 50 96.534c-8.8 0-12-.534-18.667-3.6-10.4-4.8-19.466-13.867-24.133-24.134-5.333-11.6-5.333-26-.133-37.466C13.333 17.867 25.6 7.6 39.6 4c8-2 21.067-.533 29.467 3.334"/><path fill="#2B394D" d="M39.467 26.933C35.733 32.267 38 40 43.333 40c4.4 0 6.267-10.267 2.534-13.867-2.8-2.8-4-2.666-6.4.8M54.133 26C49.467 30.667 52.8 41.2 58.4 39.467c3.867-1.2 5.2-6.933 2.8-11.333-2.4-4.134-4.4-4.8-7.067-2.134M25.867 36.8C23.2 40.667 24.4 46.134 28.4 48.534c4.667 2.8 8.267-6.4 4.933-12.667-2-3.467-4.8-3.2-7.466.933M66.667 35.867c-1.867 3.733-1.734 8.533.533 11.6 4.4 5.733 11.067-4.4 6.933-10.667-2.666-4.133-5.466-4.4-7.466-.933M41.734 45.2c-2.534 1.6-5.6 5.334-7.2 8.8-1.6 3.334-3.334 6.4-4 6.8-2.8 1.734-1.067 8.4 3.066 11.867 3.6 3.067 5.067 3.467 8.933 2.667 6-1.2 8.934-1.2 14.934 0 3.867.8 5.333.4 8.933-2.667 4.933-4.133 5.467-8.533 1.733-13.733-1.333-2-2.8-4.8-3.333-6.4-2.533-8.4-15.066-12.4-23.066-7.334"/></svg>