<svg xmlns="http://www.w3.org/2000/svg" width="32" height="32" fill="none"><path fill="#2B394D" fill-rule="evenodd" d="M16 31c8.284 0 15-6.716 15-15S24.284 1 16 1 1 7.716 1 16s6.716 15 15 15m0 1c8.837 0 16-7.163 16-16S24.837 0 16 0 0 7.163 0 16s7.163 16 16 16" clip-rule="evenodd"/><path fill="#2B394D" fill-rule="evenodd" d="M17.5 9V7a.5.5 0 0 0-.5-.5h-2a.5.5 0 0 0-.5.5v2h-1V7A1.5 1.5 0 0 1 15 5.5h2A1.5 1.5 0 0 1 18.5 7v2zM11.5 10a1.5 1.5 0 0 0-1.5 1.5v12a1.5 1.5 0 0 0 1.5 1.5h.5v.5a.5.5 0 0 0 1 0V25h6v.5a.5.5 0 0 0 1 0V25h.5a1.5 1.5 0 0 0 1.5-1.5v-12a1.5 1.5 0 0 0-1.5-1.5zm2.5 3v10h-1V13zm5 0v10h-1V13z" clip-rule="evenodd"/></svg>