<svg xmlns="http://www.w3.org/2000/svg" width="32" height="35" fill="none"><path fill="#2B394D" d="M10.6 2.007c-.667.689-1.267 1.928-1.267 2.686 0 1.24-.466 1.378-3.866 1.378C1.133 6.07 0 6.828 0 9.652v1.93h32v-1.93c0-2.824-1.133-3.581-5.467-3.581-3.266 0-3.866-.207-3.866-1.24 0-2.824-1.6-3.857-6.334-3.995-3.6-.138-4.733.138-5.733 1.17M14.533 4.9c.134.689-.2 1.17-.8 1.17-1.2 0-1.933-1.101-1.4-2.135.6-.964 1.934-.413 2.2.965m5.134-.138c0 .482-.534 1.033-1.134 1.17-1.2.208-1.666-1.239-.733-2.203.667-.689 1.867-.07 1.867 1.033M1.333 23.842c0 6.474.267 9.78.8 10.331S5.133 35 8.8 35h5.866V14.336H1.333zM17.333 24.668V35H23.2c3.666 0 6.133-.276 6.666-.827s.8-3.857.8-10.332v-9.505H17.333z"/></svg>