<svg xmlns="http://www.w3.org/2000/svg" width="24" height="24" fill="none"><path stroke="#000" stroke-linejoin="round" stroke-width="2" d="M19.32 5.77c-.29-.43-.67-.81-1.1-1.1C17.21 4 15.8 4 13 4h-2c-2.81 0-4.22 0-5.23.67-.43.29-.81.67-1.1 1.1C4 6.78 4 8.19 4 11c0 2.8 0 4.21.67 5.22.29.43.67.81 1.1 1.1.88.59 2.07.66 4.23.67V18l1.1 2.21c.37.73 1.42.73 1.79 0L14 18v-.01c2.15-.01 3.34-.08 4.22-.67.43-.29.81-.67 1.1-1.1C20 15.21 20 13.8 20 11c0-2.81 0-4.22-.68-5.23Z"/><path fill="#000" fill-rule="evenodd" d="M9 8h6v2H9zm.02 1.97L9 10c-.57 0-1-.44-1-1 0-.57.43-1 1-1l.02.02zm5.96-1.95L15 8c.56 0 1 .43 1 1 0 .56-.44 1-1 1l-.02-.03zM9 12h3v2H9zm.02 1.98L9 14c-.57 0-1-.44-1-1s.43-1 1-1l.02.02zm2.96-1.96L12 12c.56 0 1 .44 1 1s-.44 1-1 1l-.02-.02z"/></svg>