<svg xmlns="http://www.w3.org/2000/svg" width="40" height="40" fill="none"><g fill="#005EE4" clip-path="url(#a)"><path fill-rule="evenodd" d="M6.03 9a2 2 0 0 0-1.838 2.786l7.644 17.874c.244.572.724.972 1.28 1.134.266.132.566.206.884.206h20.114a2 2 0 0 0 1.873-2.702l-1.5-4A2 2 0 0 0 32.614 23H16.672l-5.3-12.767A2 2 0 0 0 9.523 9z" clip-rule="evenodd"/><rect width="8" height="18" x="15.5" y="40.5" stroke="#fff" rx="1.5" transform="rotate(-90 15.5 40.5)"/><rect width="8" height="7" x="11" y="7" rx="2" transform="rotate(180 11 7)"/><path fill-rule="evenodd" d="M27 17a8 8 0 1 0 0-16 8 8 0 0 0 0 16m4.06-10.004L29.997 5.94 25.99 9.972 23.93 8.171l-.987 1.13 2.591 2.264a.75.75 0 0 0 1.026-.037z" clip-rule="evenodd"/></g><defs><clipPath id="a"><path fill="#fff" d="M0 0h40v40H0z"/></clipPath></defs></svg>