<svg xmlns="http://www.w3.org/2000/svg" width="32" height="32" fill="none"><g fill="#2B394D"><path fill-rule="evenodd" d="M16 31c8.284 0 15-6.716 15-15S24.284 1 16 1 1 7.716 1 16s6.716 15 15 15m0 1c8.837 0 16-7.163 16-16S24.837 0 16 0 0 7.163 0 16s7.163 16 16 16" clip-rule="evenodd"/><path d="M8.556 9.95c-.737 0-1.234.807-.944 1.533l3.924 9.83c.125.315.372.535.657.624a1 1 0 0 0 .454.113h10.325c.717 0 1.213-.767.962-1.486l-.77-2.2c-.15-.43-.534-.714-.962-.714H14.02l-2.722-7.022c-.159-.41-.533-.678-.948-.678zM14.187 27c-.284 0-.513-.246-.513-.55V23.7c0-.304.23-.55.513-.55h7.7c.284 0 .514.246.514.55v2.75c0 .304-.23.55-.514.55zM11.107 7.75c0 .608-.46 1.1-1.027 1.1H8.027C7.46 8.85 7 8.358 7 7.75V6.1C7 5.492 7.46 5 8.027 5h2.053c.567 0 1.027.492 1.027 1.1z"/></g></svg>