<svg xmlns="http://www.w3.org/2000/svg" width="12" height="12" fill="none"><path fill="#fff" d="M1.132 8.916c.086.132.148.293.265.388a.76.76 0 0 0 .427.157c.617.017 1.235.008 1.853.007.018 0 .036-.007.063-.012V4.22h-.156c-.523 0-1.047.015-1.569-.005-.434-.018-.735.131-.884.545v4.156M10.073 8.18c.35-.34.438-.722.253-1.166-.013-.03 0-.09.023-.115.308-.327.38-.696.199-1.105-.035-.08.003-.11.046-.154a.95.95 0 0 0-.467-1.595c-.109-.026-.226-.027-.339-.027-.528-.004-1.056-.002-1.584-.004-.009 0-.018-.004-.043-.01q.036-.16.069-.322c.199-1.06-.082-1.975-.856-2.735a.65.65 0 0 0-.725-.146.595.595 0 0 0-.413.554A50 50 0 0 1 6.1 2.903c-.01.089-.066.199-.137.25a2 2 0 0 1-.5.283 2.5 2.5 0 0 0-.953.574.28.28 0 0 0-.078.181c-.004 1.583-.002 3.166-.005 4.749 0 .094.028.138.118.176.214.089.422.192.63.294.295.143.601.22.933.217.994-.006 1.989-.033 2.981.008.77.032 1.368-.661.983-1.454"/></svg>