<svg xmlns="http://www.w3.org/2000/svg" width="224" height="32" fill="none"><path fill="#E23F35" d="M0 31.69c.362-1.254.713-2.51 1.071-3.763q.539-1.881 1.072-3.764H9.24l-.36 1.281H3.391q-.24.841-.488 1.683h3.209q-.189.64-.367 1.28H2.542l-.532 1.866h5.555q-.198.71-.406 1.416zm13.9-7.527-.874 3.055-.876 3.055h4.598l.875-3.055.876-3.055h1.61c-.272.959-.551 1.918-.824 2.875q-.41 1.438-.825 2.874c-.199.689-.456 1.157-.76 1.404q-.465.374-1.471.373h-4.376q-1.006 0-1.255-.373-.252-.374.043-1.404c.273-.958.552-1.916.825-2.874q.407-1.436.824-2.875h1.611m14.612 1.303h-3.634l-.304 1.048c-.101.348-.196.698-.298 1.047h3.628q.417-.002.608-.13c.132-.09.227-.242.292-.468q.13-.45.26-.906.096-.326-.026-.46-.115-.128-.526-.13m-7.014 6.223 1.085-3.762 1.084-3.764h5.93c.55 0 .913.115 1.097.346s.197.603.05 1.113l-.507 1.77q-.222.762-.691 1.107c-.316.234-.755.35-1.306.35h-.895c.393.474.793.947 1.186 1.42.393.474.793.947 1.186 1.42h-2.315c-.33-.473-.653-.946-.983-1.42l-.99-1.42h-1.527c-.133.474-.276.946-.412 1.42q-.205.71-.406 1.42zm12.284-5.744c.2-.684.45-1.152.761-1.404.31-.251.8-.378 1.478-.378h5.098c.685 0 1.109.123 1.269.378q.236.374-.064 1.404-.287.99-.577 1.985c-.193.66-.381 1.321-.577 1.982-.203.687-.454 1.16-.755 1.404-.313.255-.799.374-1.483.374h-5.093q-1.018.002-1.262-.374c-.16-.246-.149-.718.051-1.404q.29-.992.577-1.982.286-.992.577-1.985m.362 4.328h5.314q.35-1.19.697-2.38c.232-.792.457-1.588.692-2.382h-5.32c-.236.794-.461 1.59-.692 2.382q-.349 1.19-.69 2.38zm16.944-4.807h-3.633c-.095.333-.197.667-.292.998l-.285.998h3.627c.28 0 .48-.046.609-.131.132-.089.219-.244.285-.467l.24-.807c.066-.218.06-.374-.018-.46q-.122-.131-.533-.13m-7.032 6.223c.367-1.253.729-2.508 1.096-3.762s.73-2.509 1.098-3.764h5.93c.551 0 .913.115 1.096.346s.196.603.045 1.113c-.165.56-.322 1.123-.488 1.681-.151.51-.381.878-.698 1.11-.317.23-.742.344-1.293.344h-4.345q-.218.733-.43 1.467-.215.731-.426 1.465zm9.975 0 1.104-3.762c.367-1.253.729-2.509 1.103-3.764h7.109l-.38 1.281h-5.493q-.239.841-.488 1.683h3.203c-.127.427-.248.853-.374 1.28h-3.203l-.551 1.866h5.555c-.14.473-.28.945-.412 1.416z"/><path fill="#0243A6" d="M218.96 3.907h-12.987a398 398 0 0 0-1.3 4.787h12.372c1.959 0 3.157.385 3.631 1.115.494.759.49 2.133-.065 4.162-.28 1.023-.556 2.038-.837 3.058-.556 2.02-1.283 3.395-2.179 4.154-.865.733-2.289 1.114-4.226 1.114h-12.283c-1.96 0-3.172-.37-3.655-1.114-.485-.748-.468-2.134.111-4.154.058-.205.11-.406.176-.61 1.431-.317 2.883-.634 4.315-.952-.221.877-.463 1.756-.705 2.635h14.066l1.387-5.083h-12.415c-1.916 0-3.135-.368-3.61-1.115-.472-.741-.433-2.129.132-4.16.227-.817.46-1.641.682-2.463.548-2.03 1.272-3.42 2.135-4.16.875-.75 2.289-1.117 4.205-1.117h11.292c1.849 0 3.011.366 3.522 1.075.523.725.551 1.993.044 3.82-.042.155-.066.309-.11.462-1.475.361-2.928.72-4.402 1.079.242-.842.462-1.688.704-2.533M171.599 22.293 178.192 0h16.52q2.378-.001 3.17 1.023c.528.684.563 1.783.154 3.298-.471 1.744-.97 3.495-1.431 5.24-.397 1.503-1.077 2.602-1.959 3.282-.9.694-2.157 1.037-3.72 1.037h-2.598c1.145 1.402 2.284 2.81 3.412 4.206 1.138 1.408 2.311 2.805 3.478 4.207h-6.648c-.968-1.402-1.937-2.804-2.884-4.207l-2.839-4.206h-4.381c-.373 1.402-.78 2.8-1.166 4.206-.385 1.4-.748 2.805-1.145 4.207zM191.631 3.86h-10.412c-.287 1.034-.561 2.065-.859 3.104-.295 1.03-.551 2.068-.836 3.102h10.412c.792 0 1.367-.125 1.738-.39.356-.252.627-.717.815-1.382.251-.89.492-1.785.748-2.685.184-.644.132-1.1-.088-1.359q-.33-.39-1.518-.39M142.33 22.297c2.906-3.714 5.806-7.436 8.695-11.144 2.899-3.72 5.811-7.432 8.739-11.15h4.446c.859 3.718 1.74 7.436 2.598 11.15s1.761 7.43 2.641 11.144h-5.194q-.562-2.429-1.057-4.865h-12.613c-1.211 1.624-2.443 3.245-3.655 4.865zm11.38-8.895h8.696a316 316 0 0 1-.903-4.535c-.286-1.51-.595-3.022-.881-4.536-1.166 1.514-2.333 3.025-3.477 4.536zM142.04 3.992h-12.459l-1.981 7.056-1.981 7.054H138.1c.44-1.594.881-3.19 1.343-4.787 1.43.359 2.862.716 4.314 1.072-.242.88-.503 1.763-.748 2.642-.569 2.038-1.297 3.43-2.18 4.16-.9.745-2.289 1.108-4.204 1.108h-11.887c-1.915 0-3.139-.356-3.61-1.108-.453-.724-.398-2.116.176-4.16.549-1.95 1.079-3.915 1.629-5.873.551-1.957 1.122-3.917 1.673-5.876q.857-3.04 2.18-4.16c.879-.744 2.288-1.117 4.204-1.117h11.865c1.892 0 3.097.38 3.565 1.117.478.754.44 2.132-.132 4.16l-.594 2.11q-2.41.41-4.821.82c.375-1.405.771-2.811 1.167-4.219M95.347 22.297 101.95.004h16.684c1.586 0 2.632.327 3.17 1.023.519.672.528 1.787.11 3.298-.484 1.747-.99 3.495-1.474 5.24-.418 1.503-1.074 2.607-1.96 3.282-.919.7-2.157 1.036-3.742 1.036h-2.597c1.144 1.403 2.267 2.806 3.389 4.207 1.123 1.402 2.29 2.805 3.435 4.207h-6.67c-.947-1.402-1.915-2.805-2.84-4.207a463 463 0 0 0-2.795-4.207h-4.269l-2.489 8.414zM115.51 3.863h-10.174l-1.829 6.206h10.241c.815 0 1.391-.125 1.761-.39.356-.252.65-.724.837-1.382.254-.897.514-1.785.771-2.685.183-.644.147-1.094-.089-1.359-.226-.254-.704-.39-1.519-.39zM61.498 3.989c-1.75 6.142-3.583 12.215-5.429 18.31h-4.998c1.846-6.095 3.672-12.17 5.429-18.31h-9.55c.402-1.329.787-2.658 1.19-3.989h24.642c-.403 1.331-.796 2.66-1.198 3.989zM12.861 22.298 19.47 0h3.767q2.736 3.287 5.473 6.571c1.824 2.19 3.63 4.394 5.471 6.568.386.455.718.844.995 1.24.268.382.497.785.71 1.189L40.5.003h4.149l-6.293 22.295h-3.725c-1.895-2.295-3.838-4.589-5.733-6.884-1.895-2.293-3.807-4.576-5.685-6.887-.277-.34-.498-.671-.687-.952s-.379-.568-.521-.863c-.166.685-.274 1.341-.45 1.951-.178.615-.365 1.134-.497 1.592-1.166 4.04-2.462 8.032-3.687 12.042h-4.509M2.612 22.297 9.224.003h4.979L7.586 22.297z"/><path fill="#E23F35" d="m71.472 18.984-.942 3.22H91.44l.272-.931.667-2.278.028-.097H75.48l.209-.708.85-2.88.855-2.893.099-.331h9.895c.277-.975.563-1.948.846-2.92H78.35l.201-.704c.489-1.704.97-3.307 1.45-4.908l.091-.302.11-.365H97.11L97.959 0H77.06q-.8 2.726-1.605 5.453c-.8 2.71-1.26 4.265-1.722 5.823-.804 2.715-1.534 5.214-2.262 7.708"/></svg>