<svg xmlns="http://www.w3.org/2000/svg" width="30" height="24" fill="none"><path fill="#9FB1C9" d="M5.981 23.17v-1.484c0-.57-.347-.94-.94-.94-.3 0-.617.102-.846.418-.174-.269-.418-.419-.79-.419a.8.8 0 0 0-.695.348v-.3h-.514v2.378h.522v-1.312c0-.418.221-.616.569-.616s.522.221.522.616v1.312h.521v-1.312c0-.418.245-.616.57-.616.347 0 .521.221.521.616v1.312zm7.704-2.377h-.845v-.72h-.522v.72h-.474v.474h.474v1.09c0 .545.221.87.814.87.22 0 .473-.072.64-.175l-.15-.442a.8.8 0 0 1-.443.126c-.245 0-.347-.15-.347-.395v-1.067h.845v-.481zm4.401-.048c-.3 0-.497.15-.616.348v-.3h-.522v2.378h.522v-1.335c0-.395.174-.617.498-.617.102 0 .221.024.323.047l.15-.497c-.102-.024-.252-.024-.355-.024m-6.66.245c-.246-.174-.593-.245-.965-.245-.592 0-.987.3-.987.767 0 .395.3.616.813.695l.245.023c.269.048.419.127.419.246 0 .174-.198.3-.546.3-.347 0-.616-.126-.79-.245l-.245.395c.27.198.64.3 1.012.3.695 0 1.09-.324 1.09-.766 0-.419-.324-.64-.813-.72l-.246-.023c-.221-.023-.395-.07-.395-.221 0-.174.175-.269.443-.269.3 0 .592.126.742.198zm13.819-.245c-.3 0-.498.15-.616.348v-.3h-.522v2.378h.522v-1.335c0-.395.174-.617.497-.617.103 0 .222.024.324.047l.15-.497c-.11-.024-.26-.024-.355-.024m-6.637 1.233c0 .72.497 1.24 1.264 1.24.348 0 .593-.07.846-.268l-.245-.419a1 1 0 0 1-.617.222c-.418 0-.719-.3-.719-.766 0-.443.3-.743.72-.767.22 0 .418.071.616.222l.245-.419c-.245-.198-.498-.269-.846-.269-.766-.009-1.264.513-1.264 1.224m4.804 0v-1.185h-.522v.3a.9.9 0 0 0-.742-.348c-.672 0-1.186.522-1.186 1.241s.522 1.24 1.186 1.24c.347 0 .593-.125.742-.347v.3h.522zm-1.904 0c0-.419.268-.766.719-.766.418 0 .719.324.719.766 0 .419-.3.766-.72.766-.45-.023-.718-.34-.718-.766m-6.22-1.233c-.694 0-1.185.498-1.185 1.241s.498 1.24 1.217 1.24c.348 0 .696-.102.965-.323l-.246-.372c-.197.15-.442.245-.695.245-.324 0-.64-.15-.719-.569h1.754v-.197c.024-.775-.419-1.265-1.09-1.265m0 .443c.325 0 .546.197.594.569H14.64c.056-.316.277-.57.648-.57m12.904.79v-2.125h-.521v1.24a.9.9 0 0 0-.743-.347c-.672 0-1.185.522-1.185 1.24 0 .72.521 1.241 1.185 1.241.348 0 .593-.126.743-.347v.3h.521zm-1.912 0c0-.419.269-.766.72-.766.418 0 .718.324.718.766 0 .419-.3.766-.719.766-.442-.023-.719-.34-.719-.766m-17.376 0v-1.185h-.521v.3a.9.9 0 0 0-.743-.348c-.672 0-1.185.522-1.185 1.241s.521 1.24 1.185 1.24c.348 0 .593-.125.743-.347v.3h.521zm-1.927 0c0-.419.269-.766.719-.766.419 0 .719.324.719.766 0 .419-.3.766-.72.766-.45-.023-.718-.34-.718-.766M11.749 9.754a8.95 8.95 0 0 1 3.39-7.009A8.908 8.908 0 0 0 .726 9.754a8.908 8.908 0 0 0 14.413 7.009 8.91 8.91 0 0 1-3.39-7.009"/><path fill="#9FB1C9" d="M29.599 9.686a8.908 8.908 0 0 1-14.412 7.009 8.86 8.86 0 0 0 3.39-7.009 8.95 8.95 0 0 0-3.39-7.009A8.87 8.87 0 0 1 20.686.773c4.93 0 8.913 4.007 8.913 8.913" opacity=".8"/><path fill="#9FB1C9" fill-rule="evenodd" d="M15.187 2.677h-3.903v14.01h3.913a8.86 8.86 0 0 0 3.38-7 8.95 8.95 0 0 0-3.39-7.01" clip-rule="evenodd" opacity=".5"/></svg>