<svg xmlns="http://www.w3.org/2000/svg" width="39" height="12" fill="none"><path fill="#9FB1C9" d="M27.682 5.49v5.828h3.238V7.864h3.67a3.59 3.59 0 0 0 3.35-2.374zM27.25.688c.19 2.38 2.445 4.263 5.197 4.263h5.628q.066-.325.065-.675A3.59 3.59 0 0 0 34.58.688zM22.459 4.891a.19.19 0 0 1 .172-.102c.108 0 .19.086.195.188v6.287h3.237V.688h-3.237c-.41.016-.875.312-1.047.685l-2.574 5.526a.3.3 0 0 1-.027.064.217.217 0 0 1-.394-.124V.688h-3.238v10.576h3.238c.405-.021.858-.318 1.03-.685l2.645-5.672c-.006-.005 0-.01 0-.016M10.372 5.074l-1.895 6.19h-2.33l-1.89-6.195a.21.21 0 0 0-.21-.173.21.21 0 0 0-.21.21v6.152H.599V.682h3.605c.593 0 1.22.464 1.392 1.03l1.576 5.154c.08.259.205.254.286 0l1.575-5.153c.173-.572.799-1.031 1.393-1.031h3.6049999999999995v10.576h-3.239V5.101a.21.21 0 0 0-.21-.21.22.22 0 0 0-.21.183"/></svg>