<svg xmlns="http://www.w3.org/2000/svg" width="24" height="24" fill="none"><defs><clipPath id="a"><rect width="23" height="23" fill="#fff" fill-opacity="0" rx="-.5" transform="translate(.5 .5)"/></clipPath></defs><rect width="23" height="23" fill="none" rx="-.5" transform="translate(.5 .5)"/><g clip-path="url(#a)"><path fill="#000" d="M7 9c.66 0 1.29-.27 1.76-.74s.74-1.1.74-1.76c0-.67-.27-1.3-.74-1.77S7.66 4 7 4c-.67 0-1.3.26-1.77.73S4.5 5.83 4.5 6.5c0 .66.26 1.29.73 1.76S6.33 9 7 9m0 2c-.6 0-1.18-.12-1.73-.35a4.6 4.6 0 0 1-1.46-.97 4.6 4.6 0 0 1-.97-1.46c-.23-.55-.34-1.13-.34-1.72 0-.6.11-1.18.34-1.73a4.6 4.6 0 0 1 .97-1.46 4.6 4.6 0 0 1 1.46-.97C5.82 2.11 6.4 2 7 2c1.19 0 2.33.47 3.18 1.31.84.85 1.32 1.99 1.32 3.19 0 1.19-.48 2.33-1.32 3.18A4.53 4.53 0 0 1 7 11m10.5 2c.53 0 1.03-.22 1.41-.59.37-.38.59-.88.59-1.41 0-.54-.22-1.04-.59-1.42a2.016 2.016 0 0 0-2.83 0 2.016 2.016 0 0 0 0 2.83c.38.37.88.59 1.42.59m0 2c-1.07 0-2.08-.43-2.83-1.18A3.98 3.98 0 0 1 13.5 11c0-1.07.42-2.08 1.17-2.83S16.43 7 17.5 7c1.06 0 2.07.42 2.82 1.17S21.5 9.93 21.5 11c0 1.06-.43 2.07-1.18 2.82A4 4 0 0 1 17.5 15m2.5 6v-.5c0-.67-.27-1.3-.74-1.77S18.16 18 17.5 18c-.67 0-1.3.26-1.77.73S15 19.83 15 20.5v.5h-2v-.5c0-.6.11-1.18.34-1.73a4.6 4.6 0 0 1 .97-1.46 4.6 4.6 0 0 1 1.46-.97c.55-.23 1.13-.34 1.73-.34.59 0 1.17.11 1.72.34a4.6 4.6 0 0 1 1.46.97c.41.42.75.92.97 1.46.23.55.35 1.13.35 1.73v.5zm-10 0v-4c0-.8-.32-1.56-.88-2.13a3.028 3.028 0 0 0-4.25 0C4.31 15.44 4 16.2 4 17v4H2v-4c0-1.33.52-2.6 1.46-3.54S5.67 12 7 12a5.003 5.003 0 0 1 5 5v4z"/></g></svg>