<svg xmlns="http://www.w3.org/2000/svg" width="39" height="36" fill="none"><path fill="#FFF" d="M9.485 16H17.5a3.5 3.5 0 1 1 0 7H7a6.5 6.5 0 1 0 0 13h23.515l-.076-.107a75 75 0 0 1-2.12-3.104 56 56 0 0 1-.5-.789H7a2.5 2.5 0 0 1 0-5h10.5a7.5 7.5 0 0 0 0-15h-5.319q-.25.403-.5.79A75 75 0 0 1 9.485 16M8 14.639l.234-.328A73 73 0 0 0 9.81 12H8z"/><path fill="#FFF" fill-rule="evenodd" d="M7 16s6-7.864 6-10.759C13 2.347 10.314 0 7 0S1 2.347 1 5.241C1 8.136 7 16 7 16m0-8a2 2 0 1 0 0-4 2 2 0 0 0 0 4M33 36s6-7.864 6-10.759C39 22.347 36.314 20 33 20s-6 2.347-6 5.241C27 28.136 33 36 33 36m0-8a2 2 0 1 0 0-4 2 2 0 0 0 0 4" clip-rule="evenodd"/></svg>