<svg xmlns="http://www.w3.org/2000/svg" width="33" height="22" fill="none"><path fill="#2B394D" d="M1.403 1.612C.152 2.827.086 3.594.218 10.755c.197 7.224.263 7.8 1.514 8.055.724.128 1.975.896 2.764 1.727 1.844 1.982 3.818 1.918 5.727-.064 2.304-2.366 10.335-2.366 12.64 0 1.909 1.982 3.883 2.046 5.727.128.79-.832 2.106-1.854 2.962-2.302 1.25-.64 1.448-1.279 1.448-4.603 0-4.22-2.436-10.997-4.41-12.468-.922-.639-4.213-.83-13.495-.895-11.586 0-12.442.064-13.692 1.28m8.886 4.795v2.558H6.998c-3.094 0-3.291-.064-3.489-1.79-.395-3.197.198-3.709 3.62-3.517l3.16.192zm10.533 0v2.558h-3.62c-3.49 0-3.621-.064-3.819-1.79-.395-3.261.198-3.709 3.95-3.517l3.489.192zm9.216-.575c.526 1.278.987 2.621.987 2.94 0 .32-1.58.512-3.423.384-3.291-.191-3.489-.32-3.686-1.982-.33-2.877.263-3.644 2.83-3.644 2.041 0 2.436.256 3.292 2.302M9.302 16.637c1.711 2.046-.856 5.178-3.094 3.772-.658-.384-1.25-1.215-1.382-1.79-.527-2.43 2.83-3.9 4.476-1.982m18.432 0c.987 1.15.658 2.877-.79 3.772-2.304 1.406-4.871-1.726-3.16-3.772a2.596 2.596 0 0 1 3.95 0"/></svg>