<svg xmlns="http://www.w3.org/2000/svg" width="38" height="37" fill="none"><g fill="#2B394D" clip-path="url(#a)"><path d="M6.68 3.252v27.244h15.734v3.252c0 1.793 1.498 3.252 3.34 3.252s3.34-1.459 3.34-3.252V3.252q0-.084.004-.168A5.3 5.3 0 0 1 30.21 0H10.02C8.183 0 6.68 1.463 6.68 3.252m5.566 2.24h11.281V7.66h-11.28zm0 4.336h11.281v2.168h-11.28zm0 4.336h11.281v2.168h-11.28zm0 4.336h11.281v2.168h-11.28zm0 4.336h11.281v2.168h-11.28zM34.66 0c-1.844 0-3.34 1.456-3.34 3.252v1.084H38V3.252C38 1.456 36.505 0 34.66 0"/><path d="M20.188 32.664H0v1.084C0 35.537 1.503 37 3.34 37h17.964a5.3 5.3 0 0 1-1.116-3.252z"/></g><defs><clipPath id="a"><path fill="#fff" d="M0 0h38v37H0z"/></clipPath></defs></svg>