<svg xmlns="http://www.w3.org/2000/svg" width="24" height="24" fill="none"><path fill="#2B394D" fill-rule="evenodd" d="M12 23.25c6.213 0 11.25-5.037 11.25-11.25S18.213.75 12 .75.75 5.787.75 12 5.787 23.25 12 23.25m0 .75c6.627 0 12-5.373 12-12S18.627 0 12 0 0 5.373 0 12s5.373 12 12 12" clip-rule="evenodd"/><path fill="#2B394D" d="M5.25 8.25A.75.75 0 0 1 6 7.5h4.5a.75.75 0 0 1 .75.75v6a.75.75 0 0 1-.75.75H6a.75.75 0 0 1-.75-.75zM10.5 6.75H6V5.7a.45.45 0 0 1 .45-.45h3.6a.45.45 0 0 1 .45.45z"/><path fill="#2B394D" fill-rule="evenodd" d="M15.75 12a1.5 1.5 0 0 0-1.5 1.5v2.625a3.375 3.375 0 1 1-6.75 0v-.375H9v.375a1.875 1.875 0 0 0 3.75 0V13.5a3 3 0 1 1 6 0v3.75h-1.5V13.5a1.5 1.5 0 0 0-1.5-1.5" clip-rule="evenodd"/></svg>