<svg xmlns="http://www.w3.org/2000/svg" width="37" height="12" fill="none"><mask id="a" width="37" height="12" x="0" y="0" maskUnits="userSpaceOnUse" style="mask-type:luminance"><path fill="#fff" d="M19 3.868c-.02 1.638 1.467 2.556 2.592 3.095 1.156.56 1.538.919 1.538 1.418-.01.769-.925 1.098-1.779 1.118-1.487.02-2.351-.4-3.045-.719l-.532 2.496c.693.32 1.97.59 3.296.61 3.115 0 5.145-1.528 5.155-3.894.01-3.005-4.18-3.175-4.15-4.513.01-.41.402-.839 1.256-.948.422-.06 1.598-.1 2.924.509l.523-2.416a7.9 7.9 0 0 0-2.774-.51C21.07.115 19.01 1.663 19 3.869M31.782.314c-.573 0-1.045.33-1.256.839l-4.442 10.543H29.2l.623-1.698h3.798l.362 1.698h2.743L34.335.314zm.432 3.075.895 4.273h-2.462zM15.221.314 12.77 11.696h2.965L18.186.314zm-4.381 0L7.755 8.062l-1.246-6.59C6.359.733 5.785.314 5.142.314H.098l-.07.33c1.034.22 2.21.579 2.923.968.433.24.563.44.704.998l2.361 9.086h3.136L13.955.314z"/></mask><g mask="url(#a)"><path fill="#9FB1C9" d="m-3.811 1.512 36.136-13.218 8.22 22.183L4.41 23.696"/></g></svg>