<svg xmlns="http://www.w3.org/2000/svg" width="40" height="40" fill="none"><path fill="#005EE4" fill-rule="evenodd" d="M0 36a4 4 0 0 0 4 4h30a4 4 0 0 0 4-4v-3h-7a3 3 0 0 1-3-3v-4a3 3 0 0 1 3-3h7v-3a4 4 0 0 0-4-4H4a4 4 0 0 0-4 4zm38-11h-7a1 1 0 0 0-1 1v4a1 1 0 0 0 1 1h7z" clip-rule="evenodd"/><path fill="#005EE4" d="M3.879 14.001 4 14h11V8a4 4 0 0 1 4-4h2.455l-.506-1.307a2 2 0 0 0-2.587-1.144L3.44 7.319a2 2 0 0 0-1.144 2.587z"/><path fill="#005EE4" d="M17 14V8a2 2 0 0 1 2-2h11a2 2 0 0 1 2 2v6zM31 31a1 1 0 0 1-1-1v-4a1 1 0 0 1 1-1h8a1 1 0 0 1 1 1v4a1 1 0 0 1-1 1z"/></svg>