<svg xmlns="http://www.w3.org/2000/svg" width="24" height="24" fill="none"><path fill="#2B394D" fill-rule="evenodd" d="M12 23.25c6.213 0 11.25-5.037 11.25-11.25S18.213.75 12 .75.75 5.787.75 12 5.787 23.25 12 23.25m0 .75c6.627 0 12-5.373 12-12S18.627 0 12 0 0 5.373 0 12s5.373 12 12 12" clip-rule="evenodd"/><path fill="#2B394D" d="M18.743 11.23c-.097.1-.251.099-.351.002C16.727 9.605 14.477 8.608 12 8.608s-4.727.997-6.392 2.624a.245.245 0 0 1-.351-.003l-1.43-1.473a.274.274 0 0 1 .001-.38 11.8 11.8 0 0 1 3.648-2.45A11.5 11.5 0 0 1 12 6c1.553 0 3.09.315 4.524.926a11.8 11.8 0 0 1 3.648 2.45.274.274 0 0 1 .002.38z"/><path fill="#2B394D" d="M6.812 12.83a.27.27 0 0 1 .003-.38A7.46 7.46 0 0 1 12 10.347c2.004 0 3.827.798 5.185 2.103a.27.27 0 0 1 .003.38l-1.43 1.473a.25.25 0 0 1-.354.004A4.97 4.97 0 0 0 12 12.954a4.97 4.97 0 0 0-3.404 1.353.25.25 0 0 1-.353-.005zM14.202 15.903c.102-.105.103-.28-.006-.375a3.31 3.31 0 0 0-4.392 0c-.109.096-.108.27-.006.375.27.28 1.505 1.442 1.998 1.905a.297.297 0 0 0 .408 0c.486-.455 1.694-1.591 1.998-1.905"/></svg>